<svg version="1.1" xmlns="http://www.w3.org/2000/svg" viewBox="715 462 659 885" width="1024" height="1024" preserveAspectRatio="xMidYMid meet">
  <defs>
    <mask id="lotusHole">
      <rect x="0" y="0" width="2048" height="2048" fill="white"/>
      <path transform="translate(0,0)" fill="black" d="M 1035.47 812.606 C 1044.97 817.298 1073 867.93 1079.11 880.229 C 1110.6 943.633 1108.84 1024.44 1036.81 1058.66 C 1031.5 1057.51 1017.84 1049.12 1013.57 1045.47 C 936.514 979.647 985.272 875.559 1035.47 812.606 z"/>
      <path transform="translate(0,0)" fill="black" d="M 1210.86 887.53 L 1211.89 888.502 C 1211.88 894.008 1209.88 900.78 1208.85 906.2 C 1196.14 973.035 1158.85 1039.06 1088.42 1056.26 C 1083.67 1057.42 1068.84 1061.01 1064.81 1058.61 C 1109.7 1022.72 1118.95 975.888 1108.23 921.378 C 1141.07 899.262 1171.75 891.143 1210.86 887.53 z"/>
      <path transform="translate(0,0)" fill="black" d="M 861.11 887.843 C 901.679 891.534 929.419 898.798 963.772 920.711 C 953.868 971.881 962.828 1026.07 1007.75 1058.14 L 1007.49 1059.26 C 988.526 1060.83 953.206 1046.56 937.383 1035.01 C 886.531 997.887 871.287 946.153 861.11 887.843 z"/>
      <path transform="translate(0,0)" fill="black" d="M 1238.86 1016.63 C 1246.75 1018.78 1269.06 1033.38 1276.81 1038.47 C 1225.15 1082.21 1175.54 1102.67 1107.25 1088.67 C 1089.4 1084.09 1081.18 1080.48 1064.63 1073.04 C 1079.34 1072.77 1094.21 1074.07 1108.78 1073.77 C 1161.37 1072.68 1202.29 1053.33 1238.86 1016.63 z"/>
      <path transform="translate(0,0)" fill="black" d="M 832.559 1017 C 835.155 1017.22 854.011 1034.27 858.592 1037.79 C 876.945 1051.88 897.052 1061.11 919.107 1067.58 C 950.123 1076.67 977.074 1072.71 1008.51 1072.77 C 993.548 1080.39 984.259 1084.24 968.255 1088.7 C 902.284 1102.36 847.557 1082.3 797.586 1038.34 C 808.618 1029.36 819.942 1023.26 832.559 1017 z"/>
      <path transform="translate(0,0)" fill="black" d="M 1212.68 947.205 C 1236.44 949.571 1246.18 951.681 1268.46 958.306 C 1241.6 999.093 1211.45 1029.94 1166.25 1049.36 C 1149.35 1055.5 1138.37 1058.15 1120.48 1059.67 C 1172.95 1029.25 1190.47 1003.86 1212.68 947.205 z"/>
      <path transform="translate(0,0)" fill="black" d="M 850.632 948.389 L 860.698 947.563 C 860.997 948.501 861.307 949.436 861.627 950.367 C 879.253 1001.18 905.84 1036.12 954.365 1059.73 C 940.421 1059.24 928.968 1056.21 915.687 1052.33 C 866.002 1034.86 833.589 1001.85 805.049 958.589 C 818.931 953.48 835.989 950.087 850.632 948.389 z"/>
      <path transform="translate(0,0)" fill="black" d="M 1139.19 825.913 L 1140.16 826.277 C 1145.78 836.158 1148.92 872.837 1149.1 885.046 C 1143.86 887.004 1104.01 905.448 1104 905.445 L 1102.55 901.745 C 1097.96 887.806 1092.07 874.33 1084.95 861.497 C 1104.38 842.954 1115.37 836.887 1139.19 825.913 z"/>
      <path transform="translate(0,0)" fill="black" d="M 931.826 824.938 C 954.859 834.643 968.82 844.056 986.931 861.143 C 980.536 872.895 975.716 884.084 970.942 896.507 L 967.407 906.756 C 950.888 896.231 941.368 892.038 922.87 885.751 C 923.647 863.22 926.889 846.459 931.826 824.938 z"/>
    </mask>
  </defs>
  
  <path mask="url(#lotusHole)" transform="translate(0,0)" fill="rgb(106,239,166)" d="M 1029.94 503.226 C 1046.08 503.905 1066.11 509.475 1081.33 512.161 C 1211.14 535.071 1293.64 623.485 1111.78 668.011 C 1053.13 682.352 990.007 683.585 934.004 707.265 C 920.64 712.078 900.687 729.14 912.646 744.576 C 934.439 772.708 998.144 787.749 1030.43 796.528 L 1036.68 788.584 C 1039.78 792.757 1042.76 796.131 1046.17 800.02 C 1071.11 806.229 1095.96 812.805 1120.71 819.748 C 1131.18 814.818 1140.64 810.305 1151.45 806.113 C 1152.32 812.801 1154.28 821.514 1155.62 828.295 C 1191.49 839.941 1226.88 852.189 1260.28 869.932 C 1292.41 886.997 1327.5 912.089 1338.37 948.716 C 1344.88 970.618 1341.61 992.868 1330.6 1012.75 C 1285.91 1093.5 1112.52 1120.55 1029.51 1144.12 C 998.777 1152.85 944.736 1169.18 929.177 1198.61 C 925.044 1206.43 923.759 1215.07 926.435 1223.58 C 933.416 1245.76 961.575 1261.72 980.615 1271.97 C 999.058 1281.55 1020.79 1289.95 1040.29 1297.1 C 1050.66 1300.9 1060.92 1303.6 1071.37 1307.78 C 1038.93 1303.78 1006.68 1298.37 974.713 1291.55 C 917.187 1278.84 818.615 1250.43 783.618 1198.33 C 774.383 1184.58 771.293 1165.93 775.5 1149.76 C 783.675 1118.32 810.465 1098.2 836.778 1082.36 C 812.862 1069.11 796.858 1057.31 776.883 1038.53 C 792.692 1023.3 804.638 1016.02 823.281 1005.63 C 807.091 986.798 797.523 973.015 784.507 952.066 C 812.025 940.961 827.152 936.953 856.249 933.49 C 850.422 911.655 848.166 896.188 844.844 873.936 C 865.967 873.933 889.608 876.576 909.886 881.967 C 910.535 877.743 910.791 872.878 911.125 868.57 C 885.473 860.41 860.767 849.532 837.427 836.122 C 770.286 796.854 745.561 734.756 822.838 688.197 C 901.062 641.068 995.442 642.046 1081.73 620.794 C 1101.12 616.019 1153.43 600.898 1144.64 571.005 C 1134.63 541.734 1085.57 525.484 1058.75 514.687 C 1049.05 510.782 1038.73 508.22 1029.94 503.226 z"/>
</svg>
